<svg width="1600" height="870" viewBox="0 0 1600 870" fill="none" xmlns="http://www.w3.org/2000/svg">
<g clip-path="url(#clip0_136_960)">
<rect width="1600" height="870" fill="#222222"/>
<path fill-rule="evenodd" clip-rule="evenodd" d="M1054.53 335.326C1092.71 329.709 1130.78 297.728 1164.53 317.868C1202.65 340.617 1224.88 389.945 1225.1 437.118C1225.32 484.458 1200.16 528.579 1165.64 557.572C1134.67 583.589 1093.68 582.293 1054.53 580.374C1017.83 578.574 979.148 575.17 953.044 547.146C926.846 519.02 917.572 476.906 921.098 437.118C924.323 400.709 943.24 367.423 970.832 346.375C994.728 328.146 1025.58 339.587 1054.53 335.326Z" fill="url(#paint0_linear_136_960)"/>
<path fill-rule="evenodd" clip-rule="evenodd" d="M465.968 542.096C511.127 543.466 532.568 596.164 560.257 631.681C582.793 660.587 605.744 689.04 608.941 725.483C612.448 765.468 609.074 811.282 578.289 837.224C548.499 862.328 505.008 846.179 465.968 845.964C427.319 845.751 386.257 858.45 354.883 835.995C319.73 810.835 295.408 768.508 297.631 725.483C299.787 683.764 337.43 656.626 365.746 625.779C396.32 592.471 420.649 540.721 465.968 542.096Z" fill="url(#paint1_linear_136_960)"/>
<path fill-rule="evenodd" clip-rule="evenodd" d="M94.3297 120.232C124.578 121.993 156.045 104.608 181.767 120.604C211.939 139.368 232.272 172.582 235.378 207.949C238.727 246.073 224.934 284.313 198.585 312.094C171.558 340.59 133.398 360.878 94.3297 356.664C57.7687 352.72 34.1967 319.797 10.3961 291.794C-10.7003 266.973 -29.5131 240.41 -32.068 207.949C-34.8441 172.678 -33.016 129.981 -3.92885 109.795C24.1919 90.2794 60.147 118.242 94.3297 120.232Z" fill="url(#paint2_linear_136_960)"/>
<path fill-rule="evenodd" clip-rule="evenodd" d="M1280.12 -303.533C1336.44 -300.056 1373.98 -248.107 1408.48 -203.56C1437.54 -166.043 1450.29 -122.462 1456.76 -75.4883C1464.75 -17.461 1483.98 46.0682 1449.37 93.3801C1411.74 144.831 1342.45 179.756 1280.12 165.991C1221.88 153.129 1204.43 82.2661 1172.21 32.1742C1150.16 -2.11902 1130.81 -35.1808 1124.84 -75.4883C1117.47 -125.3 1106.47 -178.802 1134.83 -220.451C1167.44 -268.342 1222.2 -307.108 1280.12 -303.533Z" fill="url(#paint3_linear_136_960)"/>
<path fill-rule="evenodd" clip-rule="evenodd" d="M1572.53 458.377C1632.29 464.712 1638.99 550.052 1671.07 600.751C1691.82 633.558 1720.05 660.54 1724.79 699.045C1730.24 743.244 1727.04 790.493 1698.69 824.888C1668.03 862.072 1620.79 884.467 1572.53 883.745C1524.87 883.032 1487.77 850.31 1450.1 821.169C1403.86 785.395 1333.66 757.421 1333.77 699.045C1333.88 640.675 1409.4 618.866 1450.56 577.377C1492.14 535.458 1513.74 452.145 1572.53 458.377Z" fill="url(#paint4_linear_136_960)"/>
</g>
<defs>
<linearGradient id="paint0_linear_136_960" x1="1072.74" y1="311.286" x2="1072.74" y2="581.28" gradientUnits="userSpaceOnUse">
<stop stop-color="#3F3F3F"/>
<stop offset="1" stop-color="#0F0F0F" stop-opacity="0"/>
</linearGradient>
<linearGradient id="paint1_linear_136_960" x1="453.773" y1="542.069" x2="453.773" y2="851.274" gradientUnits="userSpaceOnUse">
<stop stop-color="#3F3F3F"/>
<stop offset="1" stop-color="#0F0F0F" stop-opacity="0"/>
</linearGradient>
<linearGradient id="paint2_linear_136_960" x1="101.437" y1="102.909" x2="101.437" y2="357.219" gradientUnits="userSpaceOnUse">
<stop stop-color="#3F3F3F"/>
<stop offset="1" stop-color="#0F0F0F" stop-opacity="0"/>
</linearGradient>
<linearGradient id="paint3_linear_136_960" x1="1292.88" y1="-303.762" x2="1292.88" y2="169.007" gradientUnits="userSpaceOnUse">
<stop stop-color="#3F3F3F"/>
<stop offset="1" stop-color="#0F0F0F" stop-opacity="0"/>
</linearGradient>
<linearGradient id="paint4_linear_136_960" x1="1530.39" y1="458.046" x2="1530.39" y2="883.762" gradientUnits="userSpaceOnUse">
<stop stop-color="#3F3F3F"/>
<stop offset="1" stop-color="#0F0F0F" stop-opacity="0"/>
</linearGradient>
<clipPath id="clip0_136_960">
<rect width="1600" height="870" fill="white"/>
</clipPath>
</defs>
</svg>
