<svg width="1600" height="982" viewBox="0 0 1600 982" fill="none" xmlns="http://www.w3.org/2000/svg">
<g clip-path="url(#clip0_136_994)">
<rect width="1600" height="982" fill="#222222"/>
<path fill-rule="evenodd" clip-rule="evenodd" d="M445.428 109.197C460.584 63.8841 484.592 23.3557 523.393 -4.53445C567.105 -35.9553 619.59 -68.893 671.018 -52.9575C721.71 -37.2499 736.021 23.8201 762.782 69.6428C789.772 115.858 830.537 157.699 825.136 210.94C819.041 271.027 787.175 331.612 733.413 359.144C681.136 385.915 620.208 363.158 564.55 344.387C513.638 327.216 459.651 306.552 435.376 258.626C411.925 212.324 428.967 158.414 445.428 109.197Z" fill="url(#paint0_linear_136_994)"/>
<path fill-rule="evenodd" clip-rule="evenodd" d="M912.373 631.179C942.809 655.165 950.87 698.98 946.98 737.621C943.615 771.042 917.073 794.608 893.504 818.592C872.075 840.397 849.812 861.445 819.796 867.04C786.004 873.338 748.047 872.974 722.097 850.539C696.122 828.082 689.548 790.528 691.564 756.18C693.34 725.937 712.63 701.848 732.186 678.662C752.15 654.993 773.042 632.001 802.953 624.119C839.732 614.427 882.566 607.69 912.373 631.179Z" fill="url(#paint1_linear_136_994)"/>
<path fill-rule="evenodd" clip-rule="evenodd" d="M19.3658 210.294C71.0227 214.406 108.572 253.628 146.656 288.759C187.215 326.173 236.839 361.117 242.372 416.009C248.267 474.495 225.061 540.647 175.185 571.779C129.126 600.528 73.2931 561.55 19.3658 555.206C-23.3332 550.182 -66.0261 559.794 -103.639 538.976C-157.562 509.13 -226.193 477.34 -232.12 416.009C-238.149 353.625 -178.468 306.433 -129.947 266.743C-87.1363 231.724 -35.7763 205.905 19.3658 210.294Z" fill="url(#paint2_linear_136_994)"/>
<path fill-rule="evenodd" clip-rule="evenodd" d="M1560.8 328.027C1619.6 329.735 1679.08 271.857 1728.73 303.334C1780.66 336.255 1799.92 411.092 1786.31 470.986C1774.07 524.887 1706.81 538.616 1666.63 576.642C1628.61 612.628 1613.18 683.517 1560.8 684.435C1508.41 685.352 1479.35 624.541 1451.19 580.416C1430.2 547.506 1433.65 508.947 1424.61 470.986C1409.96 409.449 1339.15 339.118 1382.81 293.285C1426.12 247.821 1497.98 326.202 1560.8 328.027Z" fill="url(#paint3_linear_136_994)"/>
<path fill-rule="evenodd" clip-rule="evenodd" d="M315.188 818.378C364.142 818.525 400.196 859.496 433.99 894.992C466.673 929.321 505.271 966.754 501.477 1014.05C497.806 1059.82 447.17 1081.46 416.31 1115.39C382.572 1152.49 365.184 1215.9 315.188 1218.89C264.862 1221.9 238.407 1162.38 201.207 1128.28C160.799 1091.24 93.0322 1068.92 91.7344 1014.05C90.4337 959.062 154.342 930.468 195.672 894.276C232.593 861.946 266.158 818.231 315.188 818.378Z" fill="url(#paint4_linear_136_994)"/>
</g>
<defs>
<linearGradient id="paint0_linear_136_994" x1="445.851" y1="101.046" x2="829.9" y2="203.951" gradientUnits="userSpaceOnUse">
<stop stop-color="#3F3F3F"/>
<stop offset="1" stop-color="#0F0F0F" stop-opacity="0"/>
</linearGradient>
<linearGradient id="paint1_linear_136_994" x1="914.503" y1="632.914" x2="724.171" y2="852.338" gradientUnits="userSpaceOnUse">
<stop stop-color="#3F3F3F"/>
<stop offset="1" stop-color="#0F0F0F" stop-opacity="0"/>
</linearGradient>
<linearGradient id="paint2_linear_136_994" x1="5.36385" y1="209.808" x2="5.36385" y2="582.234" gradientUnits="userSpaceOnUse">
<stop stop-color="#3F3F3F"/>
<stop offset="1" stop-color="#0F0F0F" stop-opacity="0"/>
</linearGradient>
<linearGradient id="paint3_linear_136_994" x1="1579.66" y1="279.123" x2="1579.66" y2="684.445" gradientUnits="userSpaceOnUse">
<stop stop-color="#3F3F3F"/>
<stop offset="1" stop-color="#0F0F0F" stop-opacity="0"/>
</linearGradient>
<linearGradient id="paint4_linear_136_994" x1="296.725" y1="818.378" x2="296.725" y2="1219" gradientUnits="userSpaceOnUse">
<stop stop-color="#3F3F3F"/>
<stop offset="1" stop-color="#0F0F0F" stop-opacity="0"/>
</linearGradient>
<clipPath id="clip0_136_994">
<rect width="1600" height="982" fill="white"/>
</clipPath>
</defs>
</svg>
