<svg width="85" height="85" viewBox="0 0 85 85" fill="none" xmlns="http://www.w3.org/2000/svg">
<path d="M67.2917 14.1667H17.7084C15.7523 14.1667 14.1667 15.7524 14.1667 17.7084V67.2917C14.1667 69.2477 15.7523 70.8334 17.7084 70.8334H67.2917C69.2477 70.8334 70.8333 69.2477 70.8333 67.2917V17.7084C70.8333 15.7524 69.2477 14.1667 67.2917 14.1667Z" stroke="white" stroke-width="4" stroke-linecap="round" stroke-linejoin="round"/>
<path d="M56.6667 56.6667H56.6738V56.6738H56.6667V56.6667Z" stroke="white" stroke-width="4" stroke-linecap="round" stroke-linejoin="round"/>
<path d="M42.5 56.6667H42.5071V56.6738H42.5V56.6667Z" stroke="white" stroke-width="4" stroke-linecap="round" stroke-linejoin="round"/>
<path d="M28.3333 56.6667H28.3404V56.6738H28.3333V56.6667Z" stroke="white" stroke-width="4" stroke-linecap="round" stroke-linejoin="round"/>
<path d="M56.6667 42.5H56.6738V42.5071H56.6667V42.5Z" stroke="white" stroke-width="4" stroke-linecap="round" stroke-linejoin="round"/>
<path d="M42.5 42.5H42.5071V42.5071H42.5V42.5Z" stroke="white" stroke-width="4" stroke-linecap="round" stroke-linejoin="round"/>
<path d="M28.3333 42.5H28.3404V42.5071H28.3333V42.5Z" stroke="white" stroke-width="4" stroke-linecap="round" stroke-linejoin="round"/>
<path d="M14.1667 28.3333H70.8333" stroke="white" stroke-width="4" stroke-linecap="round" stroke-linejoin="round"/>
<path d="M56.6667 7.08325V14.1666" stroke="white" stroke-width="4" stroke-linecap="round" stroke-linejoin="round"/>
<path d="M28.3333 7.08325V14.1666" stroke="white" stroke-width="4" stroke-linecap="round" stroke-linejoin="round"/>
</svg>
