<svg width="85" height="85" viewBox="0 0 85 85" fill="none" xmlns="http://www.w3.org/2000/svg">
<path d="M67.2915 14.167H17.7082C15.7522 14.167 14.1665 15.7527 14.1665 17.7087V67.292C14.1665 69.248 15.7522 70.8337 17.7082 70.8337H67.2915C69.2475 70.8337 70.8332 69.248 70.8332 67.292V17.7087C70.8332 15.7527 69.2475 14.167 67.2915 14.167Z" stroke="#202020" stroke-width="4" stroke-linecap="round" stroke-linejoin="round"/>
<path d="M56.6665 56.667H56.6736V56.6741H56.6665V56.667Z" stroke="#202020" stroke-width="4" stroke-linecap="round" stroke-linejoin="round"/>
<path d="M42.5 56.667H42.5071V56.6741H42.5V56.667Z" stroke="#202020" stroke-width="4" stroke-linecap="round" stroke-linejoin="round"/>
<path d="M28.3335 56.667H28.3406V56.6741H28.3335V56.667Z" stroke="#202020" stroke-width="4" stroke-linecap="round" stroke-linejoin="round"/>
<path d="M56.6665 42.5H56.6736V42.5071H56.6665V42.5Z" stroke="#202020" stroke-width="4" stroke-linecap="round" stroke-linejoin="round"/>
<path d="M42.5 42.5H42.5071V42.5071H42.5V42.5Z" stroke="#202020" stroke-width="4" stroke-linecap="round" stroke-linejoin="round"/>
<path d="M28.3335 42.5H28.3406V42.5071H28.3335V42.5Z" stroke="#202020" stroke-width="4" stroke-linecap="round" stroke-linejoin="round"/>
<path d="M14.1665 28.333H70.8332" stroke="#202020" stroke-width="4" stroke-linecap="round" stroke-linejoin="round"/>
<path d="M56.6665 7.08301V14.1663" stroke="#202020" stroke-width="4" stroke-linecap="round" stroke-linejoin="round"/>
<path d="M28.3335 7.08301V14.1663" stroke="#202020" stroke-width="4" stroke-linecap="round" stroke-linejoin="round"/>
</svg>
