<svg width="85" height="85" viewBox="0 0 85 85" fill="none" xmlns="http://www.w3.org/2000/svg">
<path d="M63.75 74.375H21.25C19.294 74.375 17.7083 72.7893 17.7083 70.8333L17.7083 14.1667C17.7083 12.2107 19.294 10.625 21.25 10.625L48.0359 10.625C49.0225 10.625 49.9644 11.0365 50.6346 11.7604L66.3487 28.7316C66.9549 29.3863 67.2917 30.2456 67.2917 31.1379L67.2917 70.8333C67.2917 72.7893 65.706 74.375 63.75 74.375Z" stroke="white" stroke-width="4" stroke-linecap="round" stroke-linejoin="round"/>
<path d="M31.875 60.2083H53.125" stroke="white" stroke-width="4" stroke-linecap="round" stroke-linejoin="round"/>
<path d="M31.875 49.5833H53.125" stroke="white" stroke-width="4" stroke-linecap="round" stroke-linejoin="round"/>
<path d="M67.2917 31.875L49.5833 31.875C47.6273 31.875 46.0417 30.2893 46.0417 28.3333L46.0417 10.625" stroke="white" stroke-width="4" stroke-linecap="round" stroke-linejoin="round"/>
</svg>
