<svg width="1600" height="1100" viewBox="0 0 1600 1100" fill="none" xmlns="http://www.w3.org/2000/svg">
<path fill-rule="evenodd" clip-rule="evenodd" d="M445.428 109.197C460.584 63.8837 484.592 23.3553 523.393 -4.53481C567.106 -35.9556 619.59 -68.8934 671.018 -52.9578C721.71 -37.2503 736.021 23.8197 762.782 69.6425C789.772 115.858 830.538 157.699 825.136 210.939C819.041 271.026 787.175 331.612 733.413 359.144C681.136 385.915 620.208 363.158 564.55 344.386C513.638 327.215 459.651 306.552 435.376 258.625C411.925 212.324 428.967 158.414 445.428 109.197Z" fill="#000000"/>
<path fill-rule="evenodd" clip-rule="evenodd" d="M912.373 631.18C942.809 655.165 950.87 698.98 946.98 737.621C943.615 771.042 917.073 794.608 893.504 818.592C872.075 840.397 849.812 861.446 819.795 867.04C786.004 873.338 748.047 872.974 722.097 850.539C696.122 828.083 689.548 790.528 691.564 756.18C693.339 725.938 712.63 701.848 732.186 678.662C752.15 654.993 773.042 632.001 802.953 624.119C839.732 614.427 882.566 607.69 912.373 631.18Z" fill="#000000"/>
<path fill-rule="evenodd" clip-rule="evenodd" d="M19.3659 210.294C71.0227 214.405 108.572 253.627 146.656 288.758C187.215 326.172 236.839 361.116 242.372 416.009C248.267 474.494 225.061 540.646 175.185 571.779C129.126 600.527 73.2931 561.55 19.3659 555.205C-23.3332 550.182 -66.0261 559.794 -103.639 538.975C-157.562 509.129 -226.193 477.339 -232.12 416.009C-238.149 353.625 -178.468 306.433 -129.947 266.743C-87.1363 231.723 -35.7762 205.905 19.3659 210.294Z" fill="#000000"/>
<path fill-rule="evenodd" clip-rule="evenodd" d="M1560.8 328.027C1619.6 329.735 1679.08 271.857 1728.73 303.334C1780.66 336.256 1799.92 411.092 1786.32 470.986C1774.07 524.887 1706.81 538.616 1666.63 576.643C1628.61 612.628 1613.18 683.517 1560.8 684.435C1508.41 685.352 1479.35 624.541 1451.19 580.416C1430.2 547.507 1433.65 508.947 1424.61 470.986C1409.96 409.449 1339.15 339.118 1382.81 293.285C1426.12 247.821 1497.98 326.202 1560.8 328.027Z" fill="#000000"/>
<path fill-rule="evenodd" clip-rule="evenodd" d="M315.188 818.378C364.142 818.525 400.196 859.495 433.99 894.991C466.673 929.321 505.271 966.754 501.477 1014.05C497.806 1059.81 447.171 1081.46 416.31 1115.39C382.572 1152.49 365.185 1215.89 315.188 1218.89C264.863 1221.9 238.407 1162.38 201.207 1128.28C160.799 1091.23 93.0324 1068.92 91.7346 1014.05C90.4339 959.062 154.342 930.468 195.672 894.276C232.593 861.945 266.158 818.231 315.188 818.378Z" fill="#000000"/>
</svg>
