<svg width="85" height="85" viewBox="0 0 85 85" fill="none" xmlns="http://www.w3.org/2000/svg">
<path d="M60.2083 74.3747C64.1203 74.3747 67.2917 71.2034 67.2917 67.2913C67.2917 63.3793 64.1203 60.208 60.2083 60.208C56.2963 60.208 53.125 63.3793 53.125 67.2913C53.125 71.2034 56.2963 74.3747 60.2083 74.3747Z" stroke="#202020" stroke-width="4" stroke-linecap="round" stroke-linejoin="round"/>
<path d="M28.3333 74.3747C32.2454 74.3747 35.4167 71.2034 35.4167 67.2913C35.4167 63.3793 32.2454 60.208 28.3333 60.208C24.4213 60.208 21.25 63.3793 21.25 67.2913C21.25 71.2034 24.4213 74.3747 28.3333 74.3747Z" stroke="#202020" stroke-width="4" stroke-linecap="round" stroke-linejoin="round"/>
<path d="M10.625 10.625H14.8452C16.5152 10.625 17.9583 11.7916 18.3082 13.4246L27.7334 57.4087C28.0833 59.0417 29.5264 60.2083 31.1965 60.2083H60.2083" stroke="#202020" stroke-width="4" stroke-linecap="round" stroke-linejoin="round"/>
<path d="M21.25 21.25H69.6673C72.024 21.25 73.7234 23.5089 73.0702 25.7733L66.9404 47.0233C66.503 48.5394 65.1154 49.5833 63.5375 49.5833H27.3798" stroke="#202020" stroke-width="4" stroke-linecap="round" stroke-linejoin="round"/>
</svg>
