<svg width="1600" height="900" viewBox="0 0 1600 900" fill="none" xmlns="http://www.w3.org/2000/svg">
<g clip-path="url(#clip0_136_867)">
<rect width="1600" height="900" fill="url(#paint0_radial_136_867)"/>
<path fill-rule="evenodd" clip-rule="evenodd" d="M329.889 -118.887C379.651 -117.594 404.996 -59.7907 432.496 -18.2611C453.074 12.8145 458.436 47.6588 464.528 84.4381C472.67 133.593 507.226 191.513 473.281 227.959C439.399 264.338 378.676 238.438 329.889 228.999C293.163 221.893 263.445 203.147 232.953 181.461C192.31 152.556 129.332 134.267 126.627 84.4381C123.919 34.5619 186.515 11.575 221.813 -23.7344C257.093 -59.0245 280.028 -120.182 329.889 -118.887Z" fill="url(#paint1_linear_136_867)"/>
<path fill-rule="evenodd" clip-rule="evenodd" d="M905.556 672.085C962.574 664.444 1030.17 630.658 1071.56 670.601C1112.97 710.557 1089.34 780.61 1076.06 836.6C1066.23 878.059 1040.16 911.096 1007.91 938.95C978.598 964.271 944.283 984.72 905.556 983.883C867.55 983.06 832.879 962.95 807.537 934.615C783.592 907.843 778.383 872.227 773.826 836.6C768.249 792.996 751.311 744.153 778.788 709.838C807.436 674.06 860.128 678.173 905.556 672.085Z" fill="url(#paint2_linear_136_867)"/>
<path fill-rule="evenodd" clip-rule="evenodd" d="M166.74 386.938C207.082 395.895 223.247 440.703 254.489 467.78C290.723 499.182 360.572 507.658 361.387 555.63C362.201 603.48 288.246 609.856 257.528 646.523C220.13 691.165 223.565 775.404 166.74 787.978C109.809 800.577 58.3491 745.583 24.4301 698.105C-4.65261 657.396 -0.063345 605.673 0.748015 555.63C1.5389 506.85 -5.22203 452.462 28.9762 417.707C63.302 382.823 118.989 376.335 166.74 386.938Z" fill="url(#paint3_linear_136_867)"/>
<path fill-rule="evenodd" clip-rule="evenodd" d="M1073.4 -83.3481C1113.56 -90.9277 1157.85 -82.5082 1187.85 -54.8772C1218.67 -26.4781 1229.38 17.2022 1227.89 58.9725C1226.45 99.2299 1211.77 140.05 1179.99 165.006C1150.7 188.003 1110.69 181.604 1073.4 180.262C1038.17 178.994 997.319 184.122 974.256 157.601C951.734 131.701 963.836 92.9763 967.927 58.9725C971.332 30.6786 978.456 4.36808 995.454 -18.5684C1016.34 -46.75 1038.82 -76.8222 1073.4 -83.3481Z" fill="url(#paint4_linear_136_867)"/>
<path fill-rule="evenodd" clip-rule="evenodd" d="M1476.27 243.011C1533.22 242.06 1565.73 305.227 1601.01 349.87C1630.55 387.248 1662.38 426.911 1659.13 474.411C1656.03 519.84 1618.11 551.645 1585.08 583.045C1553.23 613.321 1519.86 642.452 1476.27 648.249C1426.19 654.908 1373.75 647.566 1334.01 616.432C1289.57 581.614 1249.74 530.623 1254.37 474.411C1258.84 420.105 1317.88 393.325 1355.62 353.966C1394.93 312.975 1419.43 243.959 1476.27 243.011Z" fill="url(#paint5_linear_136_867)"/>
</g>
<defs>
<radialGradient id="paint0_radial_136_867" cx="0" cy="0" r="1" gradientUnits="userSpaceOnUse" gradientTransform="translate(800 450) rotate(90) scale(404 800)">
<stop stop-color="#363636"/>
<stop offset="0.859375" stop-color="#242424"/>
</radialGradient>
<linearGradient id="paint1_linear_136_867" x1="307.239" y1="-118.907" x2="307.239" y2="246.776" gradientUnits="userSpaceOnUse">
<stop stop-color="#3F3F3F"/>
<stop offset="1" stop-color="#0F0F0F" stop-opacity="0"/>
</linearGradient>
<linearGradient id="paint2_linear_136_867" x1="929.223" y1="651.468" x2="929.223" y2="983.907" gradientUnits="userSpaceOnUse">
<stop stop-color="#3F3F3F"/>
<stop offset="1" stop-color="#0F0F0F" stop-opacity="0"/>
</linearGradient>
<linearGradient id="paint3_linear_136_867" x1="180.697" y1="382.299" x2="180.697" y2="789.806" gradientUnits="userSpaceOnUse">
<stop stop-color="#3F3F3F"/>
<stop offset="1" stop-color="#0F0F0F" stop-opacity="0"/>
</linearGradient>
<linearGradient id="paint4_linear_136_867" x1="1094.51" y1="-86" x2="1094.51" y2="182.096" gradientUnits="userSpaceOnUse">
<stop stop-color="#3F3F3F"/>
<stop offset="1" stop-color="#0F0F0F" stop-opacity="0"/>
</linearGradient>
<linearGradient id="paint5_linear_136_867" x1="1456.68" y1="243" x2="1456.68" y2="650.507" gradientUnits="userSpaceOnUse">
<stop stop-color="#3F3F3F"/>
<stop offset="1" stop-color="#0F0F0F" stop-opacity="0"/>
</linearGradient>
<clipPath id="clip0_136_867">
<rect width="1600" height="900" fill="white"/>
</clipPath>
</defs>
</svg>
