<svg width="1600" height="925" viewBox="0 0 1600 925" fill="none" xmlns="http://www.w3.org/2000/svg">
<path fill-rule="evenodd" clip-rule="evenodd" d="M104.234 0.0149485C145.381 0.96929 166.339 43.6414 189.078 74.2995C206.093 97.2403 210.527 122.963 215.565 150.115C222.297 186.402 250.87 229.16 222.802 256.066C194.786 282.922 144.575 263.801 104.234 256.833C73.8663 251.588 49.2929 237.749 24.0798 221.74C-9.52676 200.401 -61.6025 186.9 -63.8393 150.115C-66.0783 113.295 -14.319 96.3253 14.8687 70.259C44.0404 44.207 63.0053 -0.941298 104.234 0.0149485Z" fill="black"/>
<path fill-rule="evenodd" clip-rule="evenodd" d="M351.654 348.616C386.894 355.597 401.014 390.518 428.306 411.621C459.957 436.095 520.973 442.7 521.685 480.089C522.396 517.381 457.793 522.35 430.96 550.927C398.291 585.719 401.293 651.372 351.654 661.173C301.922 670.991 256.97 628.131 227.341 591.128C201.936 559.401 205.945 519.09 206.653 480.089C207.344 442.071 201.438 399.683 231.312 372.596C261.297 345.409 309.941 340.352 351.654 348.616Z" fill="black"/>
<path fill-rule="evenodd" clip-rule="evenodd" d="M1046.92 76.4512C1082.01 70.5439 1120.69 77.1057 1146.9 98.6404C1173.82 120.774 1183.18 154.817 1181.88 187.371C1180.62 218.746 1167.8 250.56 1140.03 270.01C1114.44 287.933 1079.5 282.946 1046.92 281.9C1016.15 280.912 980.464 284.908 960.318 264.238C940.643 244.053 951.215 213.872 954.789 187.371C957.763 165.32 963.986 144.814 978.834 126.938C997.078 104.974 1016.72 81.5372 1046.92 76.4512Z" fill="black"/>
<path fill-rule="evenodd" clip-rule="evenodd" d="M1512.92 149.613C1562.67 148.872 1591.07 198.102 1621.89 232.896C1647.69 262.027 1675.49 292.939 1672.66 329.958C1669.95 365.364 1636.83 390.152 1607.97 414.624C1580.15 438.22 1551 460.924 1512.92 465.442C1469.18 470.631 1423.37 464.91 1388.65 440.645C1349.83 413.509 1315.04 373.768 1319.08 329.958C1322.99 287.634 1374.56 266.763 1407.53 236.088C1441.87 204.141 1463.27 150.352 1512.92 149.613Z" fill="black"/>
<path fill-rule="evenodd" clip-rule="evenodd" d="M1066.24 549.296C1116.04 543.341 1175.09 517.009 1211.25 548.14C1247.42 579.28 1226.78 633.877 1215.18 677.514C1206.59 709.825 1183.82 735.573 1155.65 757.282C1130.04 777.016 1100.07 792.953 1066.24 792.3C1033.04 791.66 1002.75 775.986 980.614 753.903C959.697 733.038 955.147 705.28 951.166 677.514C946.294 643.53 931.499 605.464 955.501 578.719C980.525 550.836 1026.55 554.041 1066.24 549.296Z" fill="black"/>
<path fill-rule="evenodd" clip-rule="evenodd" d="M79.5518 924.432C78.6114 892.237 113.169 871.558 129.51 842.824C148.462 809.499 140.872 755.082 181.359 745.413C221.742 735.769 242.787 790.489 280.361 806.798C326.106 826.654 396.776 808.16 419.452 848.757C442.171 889.43 406.445 938.72 373.378 973.328C345.027 1003 300.219 1009.29 257.633 1018.12C216.123 1026.73 171.456 1042.1 134.767 1022.8C97.9411 1003.43 80.6648 962.542 79.5518 924.432Z" fill="black"/>
<path fill-rule="evenodd" clip-rule="evenodd" d="M1212.73 890.067C1247.81 884.16 1286.5 890.721 1312.7 912.256C1339.63 934.389 1348.99 968.432 1347.68 1000.99C1346.43 1032.36 1333.61 1064.18 1305.84 1083.63C1280.25 1101.55 1245.31 1096.56 1212.73 1095.52C1181.96 1094.53 1146.27 1098.52 1126.13 1077.85C1106.45 1057.67 1117.02 1027.49 1120.6 1000.99C1123.57 978.935 1129.79 958.43 1144.64 940.554C1162.89 918.59 1182.53 895.153 1212.73 890.067Z" fill="black"/>
<path fill-rule="evenodd" clip-rule="evenodd" d="M1689.97 621.829C1739.72 621.088 1768.12 670.318 1798.94 705.112C1824.74 734.242 1852.54 765.154 1849.71 802.174C1847 837.58 1813.88 862.368 1785.02 886.84C1757.2 910.436 1728.05 933.14 1689.97 937.658C1646.23 942.847 1600.42 937.125 1565.7 912.861C1526.88 885.725 1492.09 845.984 1496.13 802.174C1500.04 759.85 1551.61 738.979 1584.58 708.304C1618.92 676.357 1640.32 622.568 1689.97 621.829Z" fill="black"/>
</svg>
