<svg width="1600" height="969" viewBox="0 0 1600 969" fill="none" xmlns="http://www.w3.org/2000/svg">
<path fill-rule="evenodd" clip-rule="evenodd" d="M970.716 418.647C1001.7 439.1 1037.71 452.346 1054.5 485.423C1076.02 527.808 1095.87 579.31 1073.51 621.13C1050.66 663.849 996.951 682.639 948.413 683.812C907.169 684.809 878.759 648.712 843.831 626.682C809.871 605.263 765.627 595.628 750.018 558.683C732.642 517.555 737.53 468.397 760.943 430.491C784.253 392.753 825.966 366.378 870.348 363.872C909.867 361.641 937.648 396.821 970.716 418.647Z" fill="#000000"/>
<path fill-rule="evenodd" clip-rule="evenodd" d="M106.097 0.413878C145.3 0.888291 189.92 9.4672 211.135 42.3553C230.927 73.0372 202.246 110.678 200.74 147.132C199.359 180.544 222.751 216.727 202.816 243.612C181.872 271.857 141.28 276.378 106.097 274.771C72.5989 273.24 43.5431 256.655 17.8486 235.162C-11.15 210.905 -42.7688 184.7 -46.4932 147.132C-50.4707 107.011 -30.6204 67.7616 -1.52097 39.7819C27.0769 12.2844 66.3792 -0.0667637 106.097 0.413878Z" fill="#000000"/>
<path fill-rule="evenodd" clip-rule="evenodd" d="M1403.37 14.2456C1439.91 13.7732 1470.13 42.0934 1492.08 71.3597C1511.04 96.6467 1515.74 128.733 1512.86 160.231C1510.26 188.573 1496.83 213.621 1477.18 234.178C1457 255.295 1432.4 277.744 1403.37 274.793C1375.46 271.955 1364.11 239.247 1343.16 220.553C1319.62 199.549 1280.51 191.322 1274.96 160.231C1269.09 127.392 1294.91 98.6531 1316.92 73.6244C1340.94 46.3251 1367.05 14.7152 1403.37 14.2456Z" fill="#000000"/>
<path fill-rule="evenodd" clip-rule="evenodd" d="M291.515 662.602C341.609 664.023 389.454 692.81 416.743 734.707C440.379 770.998 418.51 816.285 419.783 859.534C421.133 905.411 450.73 954.316 424.313 991.907C396.079 1032.08 340.593 1045.62 291.515 1042.05C245.357 1038.69 211.779 1004.09 176.782 973.901C137.436 939.962 83.6604 911.265 79.9185 859.534C76.0724 806.362 119.861 763.775 158.951 727.393C196.346 692.59 240.375 661.151 291.515 662.602Z" fill="#000000"/>
<path fill-rule="evenodd" clip-rule="evenodd" d="M1520.59 619.364C1559.52 627.55 1598.28 627.092 1631.5 649.032C1675.16 677.875 1730.35 707.911 1733.82 760.219C1737.35 813.405 1687.42 852.269 1647.32 887.264C1610.79 919.133 1568.63 940.175 1520.59 946.279C1463.87 953.487 1394.68 967.328 1357.08 924.147C1319.82 881.353 1359.64 817.016 1358.58 760.219C1357.47 701.186 1306.33 628.69 1350.82 590.009C1395.92 550.797 1462.17 607.077 1520.59 619.364Z" fill="#000000"/>
</svg>
