<svg width="1600" height="1000" viewBox="0 0 1600 1000" fill="none" xmlns="http://www.w3.org/2000/svg">
<g clip-path="url(#clip0_136_889)">
<rect width="1600" height="1000" fill="url(#paint0_radial_136_889)"/>
<path fill-rule="evenodd" clip-rule="evenodd" d="M970.715 449.647C1001.7 470.1 1037.71 483.346 1054.5 516.423C1076.02 558.808 1095.87 610.31 1073.51 652.13C1050.66 694.849 996.95 713.639 948.413 714.812C907.169 715.809 878.759 679.712 843.831 657.682C809.871 636.263 765.627 626.628 750.018 589.683C732.642 548.555 737.53 499.397 760.943 461.491C784.253 423.753 825.966 397.378 870.348 394.872C909.866 392.641 937.648 427.821 970.715 449.647Z" fill="url(#paint1_linear_136_889)"/>
<path fill-rule="evenodd" clip-rule="evenodd" d="M106.097 31.4139C145.3 31.8883 189.92 40.4672 211.135 73.3553C230.927 104.037 202.246 141.678 200.74 178.132C199.359 211.544 222.751 247.727 202.816 274.612C181.872 302.857 141.28 307.378 106.097 305.771C72.5989 304.24 43.5431 287.655 17.8486 266.162C-11.15 241.905 -42.7688 215.7 -46.4932 178.132C-50.4707 138.011 -30.6204 98.7616 -1.52097 70.7819C27.0769 43.2844 66.3792 30.9332 106.097 31.4139Z" fill="url(#paint2_linear_136_889)"/>
<path fill-rule="evenodd" clip-rule="evenodd" d="M1403.37 45.2451C1439.91 44.7727 1470.13 73.0929 1492.08 102.359C1511.04 127.646 1515.74 159.733 1512.86 191.231C1510.26 219.573 1496.83 244.621 1477.18 265.178C1457 286.294 1432.4 308.744 1403.37 305.792C1375.46 302.954 1364.11 270.247 1343.16 251.553C1319.62 230.548 1280.51 222.321 1274.96 191.231C1269.09 158.391 1294.91 129.653 1316.92 104.624C1340.94 77.3246 1367.05 45.7147 1403.37 45.2451Z" fill="url(#paint3_linear_136_889)"/>
<path fill-rule="evenodd" clip-rule="evenodd" d="M291.516 693.602C341.609 695.023 389.454 723.81 416.743 765.708C440.38 801.998 418.51 847.285 419.783 890.535C421.133 936.412 450.73 985.316 424.313 1022.91C396.079 1063.08 340.593 1076.62 291.516 1073.05C245.357 1069.69 211.779 1035.09 176.782 1004.9C137.436 970.963 83.6605 942.266 79.9186 890.535C76.0725 837.363 119.861 794.775 158.951 758.394C196.347 723.59 240.375 692.151 291.516 693.602Z" fill="url(#paint4_linear_136_889)"/>
<path fill-rule="evenodd" clip-rule="evenodd" d="M1520.59 650.364C1559.52 658.55 1598.28 658.092 1631.5 680.032C1675.16 708.875 1730.35 738.911 1733.82 791.218C1737.35 844.404 1687.42 883.268 1647.32 918.264C1610.79 950.132 1568.63 971.174 1520.59 977.278C1463.87 984.487 1394.68 998.327 1357.08 955.147C1319.82 912.353 1359.64 848.015 1358.58 791.218C1357.47 732.185 1306.33 659.69 1350.82 621.008C1395.92 581.796 1462.17 638.077 1520.59 650.364Z" fill="url(#paint5_linear_136_889)"/>
</g>
<defs>
<radialGradient id="paint0_radial_136_889" cx="0" cy="0" r="1" gradientUnits="userSpaceOnUse" gradientTransform="translate(800 500) rotate(90) scale(448.889 800)">
<stop stop-color="#363636"/>
<stop offset="0.859375" stop-color="#242424"/>
</radialGradient>
<linearGradient id="paint1_linear_136_889" x1="982.848" y1="449.358" x2="849.346" y2="668.243" gradientUnits="userSpaceOnUse">
<stop stop-color="#3F3F3F"/>
<stop offset="1" stop-color="#0F0F0F" stop-opacity="0"/>
</linearGradient>
<linearGradient id="paint2_linear_136_889" x1="85.5371" y1="31.4004" x2="85.5371" y2="306.056" gradientUnits="userSpaceOnUse">
<stop stop-color="#3F3F3F"/>
<stop offset="1" stop-color="#0F0F0F" stop-opacity="0"/>
</linearGradient>
<linearGradient id="paint3_linear_136_889" x1="1393.87" y1="45.2393" x2="1393.87" y2="306.055" gradientUnits="userSpaceOnUse">
<stop stop-color="#3F3F3F"/>
<stop offset="1" stop-color="#0F0F0F" stop-opacity="0"/>
</linearGradient>
<linearGradient id="paint4_linear_136_889" x1="257.463" y1="693.554" x2="257.463" y2="1073.6" gradientUnits="userSpaceOnUse">
<stop stop-color="#3F3F3F"/>
<stop offset="1" stop-color="#0F0F0F" stop-opacity="0"/>
</linearGradient>
<linearGradient id="paint5_linear_136_889" x1="1533.33" y1="607.324" x2="1533.33" y2="985.241" gradientUnits="userSpaceOnUse">
<stop stop-color="#3F3F3F"/>
<stop offset="1" stop-color="#0F0F0F" stop-opacity="0"/>
</linearGradient>
<clipPath id="clip0_136_889">
<rect width="1600" height="1000" fill="white"/>
</clipPath>
</defs>
</svg>
