<svg width="1600" height="1100" viewBox="0 0 1600 1100" fill="none" xmlns="http://www.w3.org/2000/svg">
<path fill-rule="evenodd" clip-rule="evenodd" d="M136.092 -70.7745C185.623 -61.8336 200.58 -0.430435 227.192 42.2524C245.147 71.0501 257.605 99.8243 263.31 133.27C270.794 177.139 289.239 224.596 264.628 261.688C237.189 303.041 185.751 324.865 136.092 325C86.3226 325.134 42.6938 296.893 6.86061 262.384C-29.7903 227.088 -62.5963 184.128 -62.9963 133.27C-63.3986 82.1166 -30.9269 38.7401 4.81348 2.11015C41.1413 -35.122 84.8786 -80.0193 136.092 -70.7745Z" fill="#000000"/>
<path fill-rule="evenodd" clip-rule="evenodd" d="M1084.09 -120.922C1127.11 -119.559 1165.4 -96.9087 1195.67 -66.2769C1225.74 -35.8419 1245.92 2.66244 1248.43 45.3928C1251.09 90.8736 1245.46 142.952 1209.58 170.989C1175.3 197.779 1127.3 178.821 1084.09 173.805C1048.46 169.668 1013.23 166.619 984.686 144.88C951.281 119.441 919.192 87.2364 915.463 45.3928C911.497 0.878471 933.414 -42.2065 965.22 -73.5758C996.797 -104.72 1039.78 -122.325 1084.09 -120.922Z" fill="#000000"/>
<path fill-rule="evenodd" clip-rule="evenodd" d="M970.333 468.33C1022.46 462.324 1038.78 539.853 1075.43 577.436C1111.19 614.111 1173.19 631.739 1179.3 682.619C1185.66 735.469 1147.64 785.898 1104.18 816.575C1066.08 843.463 1016.77 834.161 970.333 830.106C929.706 826.558 888.746 821.856 857.971 795.075C825.01 766.392 794.461 725.863 800.854 682.619C806.932 641.499 861.158 631.743 886.935 599.151C920.281 556.988 916.957 474.479 970.333 468.33Z" fill="#000000"/>
<path fill-rule="evenodd" clip-rule="evenodd" d="M97.7279 841.244C152.139 841.031 204.662 777.736 250.854 806.489C297.197 835.337 295.497 905.553 287.87 959.603C281.216 1006.76 248.369 1042.97 212.987 1074.85C179.99 1104.59 141.894 1126.22 97.7279 1130.93C47.5517 1136.29 -10.0381 1138.71 -45.0681 1102.39C-79.8406 1066.34 -65.9729 1009.67 -67.5248 959.603C-69.1622 906.783 -97.1685 838.457 -54.2038 807.684C-10.3714 776.289 43.8113 841.455 97.7279 841.244Z" fill="#000000"/>
<path fill-rule="evenodd" clip-rule="evenodd" d="M1621.53 558.467C1705.4 544.066 1797.73 543.006 1864.21 596.135C1936.12 653.608 1973.52 746.76 1972.31 838.811C1971.11 929.801 1936.8 1029.83 1857.9 1075.18C1786.13 1116.44 1703.63 1051.12 1621.53 1040.47C1558.6 1032.3 1488.55 1061.09 1439.45 1020.89C1387.67 978.512 1373.18 905.693 1375.18 838.811C1377.11 773.988 1407.17 715.975 1449.98 667.259C1496.45 614.382 1552.16 570.38 1621.53 558.467Z" fill="#000000"/>
</svg>
