<svg width="1600" height="875" viewBox="0 0 1600 875" fill="none" xmlns="http://www.w3.org/2000/svg">
<path fill-rule="evenodd" clip-rule="evenodd" d="M74.4934 0.0178857C118.418 1.15974 140.79 52.2163 165.064 88.8984C183.228 116.347 187.961 147.124 193.339 179.61C200.526 223.027 231.027 274.187 201.065 306.379C171.157 338.512 117.557 315.635 74.4934 307.297C42.0757 301.021 15.8436 284.463 -11.0713 265.308C-46.9463 239.777 -102.537 223.623 -104.925 179.61C-107.315 135.556 -52.062 115.252 -20.9042 84.0639C10.2365 52.893 30.4816 -1.12625 74.4934 0.0178857Z" fill="#000000"/>
<path fill-rule="evenodd" clip-rule="evenodd" d="M412.485 391.326C450.104 399.679 465.178 441.462 494.311 466.711C528.099 495.994 593.233 503.897 593.994 548.632C594.752 593.252 525.789 599.197 497.145 633.389C462.271 675.017 465.475 753.57 412.485 765.296C359.397 777.044 311.411 725.763 279.781 681.489C252.661 643.528 256.941 595.297 257.698 548.632C258.435 503.144 252.13 452.427 284.02 420.018C316.029 387.489 367.957 381.439 412.485 391.326Z" fill="#000000"/>
<path fill-rule="evenodd" clip-rule="evenodd" d="M1080.81 91.4729C1118.26 84.4049 1159.56 92.2561 1187.53 118.022C1216.28 144.504 1226.27 185.236 1224.87 224.187C1223.53 261.727 1209.85 299.792 1180.21 323.063C1152.89 344.508 1115.59 338.541 1080.81 337.29C1047.96 336.107 1009.87 340.889 988.361 316.158C967.359 292.006 978.644 255.895 982.46 224.187C985.634 197.803 992.277 173.268 1008.13 151.88C1027.6 125.601 1048.57 97.5583 1080.81 91.4729Z" fill="#000000"/>
<path fill-rule="evenodd" clip-rule="evenodd" d="M1578.26 179.01C1631.37 178.123 1661.69 237.027 1694.59 278.657C1722.13 313.511 1751.81 350.497 1748.79 394.791C1745.89 437.153 1710.53 466.812 1679.73 496.092C1650.03 524.324 1618.91 551.489 1578.26 556.895C1531.57 563.104 1482.67 556.258 1445.61 527.226C1404.17 494.758 1367.03 447.208 1371.34 394.791C1375.51 344.15 1430.57 319.179 1465.76 282.476C1502.42 244.252 1525.27 179.894 1578.26 179.01Z" fill="#000000"/>
<path fill-rule="evenodd" clip-rule="evenodd" d="M1101.43 657.226C1154.6 650.1 1217.63 618.595 1256.23 655.842C1294.85 693.101 1272.81 758.425 1260.43 810.636C1251.26 849.296 1226.95 880.104 1196.88 906.077C1169.54 929.689 1137.54 948.758 1101.43 947.977C1065.99 947.21 1033.66 928.457 1010.03 902.035C987.699 877.07 982.842 843.858 978.593 810.636C973.392 769.975 957.597 724.429 983.22 692.43C1009.93 659.068 1059.07 662.903 1101.43 657.226Z" fill="#000000"/>
</svg>
