<svg width="1600" height="650" viewBox="0 0 1600 650" fill="none" xmlns="http://www.w3.org/2000/svg">
<g clip-path="url(#clip0_97_61)">
<rect width="1600" height="650" fill="#1a1a1a"/>
<path fill-rule="evenodd" clip-rule="evenodd" d="M-107.32 394.953C-88.9109 339.91 -59.7477 290.68 -12.6162 256.802C40.4819 218.634 104.235 178.625 166.705 197.982C228.281 217.062 245.665 291.244 278.172 346.905C310.957 403.043 360.475 453.868 353.914 518.54C346.509 591.528 307.802 665.122 242.497 698.565C178.996 731.084 104.985 703.441 37.3774 680.639C-24.4657 659.781 -90.0442 634.681 -119.531 576.464C-148.017 520.222 -127.316 454.737 -107.32 394.953Z" fill="#000000"/>
<path fill-rule="evenodd" clip-rule="evenodd" d="M816.398 -330.664C893.15 -336.074 961.289 -275.287 1003.34 -210.854C1038.84 -156.469 1013.15 -88.7592 1016.61 -23.9076C1020.46 48.1294 1062.87 123.079 1024.43 184.127C980.988 253.132 897.722 288.147 816.398 294.103C728.979 300.506 620.8 292.038 575.481 217.009C531.44 144.098 608.014 59.6998 624.308 -23.9076C635.248 -80.0391 623.719 -137.766 654.07 -186.235C694.03 -250.048 741.292 -325.37 816.398 -330.664Z" fill="#000000"/>
<path fill-rule="evenodd" clip-rule="evenodd" d="M1248.26 405.01C1301.37 404.123 1331.69 463.027 1364.59 504.657C1392.13 539.511 1421.81 576.497 1418.79 620.791C1415.89 663.153 1380.53 692.812 1349.73 722.092C1320.03 750.324 1288.91 777.489 1248.26 782.895C1201.57 789.104 1152.67 782.258 1115.61 753.226C1074.17 720.758 1037.03 673.208 1041.34 620.791C1045.51 570.15 1100.57 545.179 1135.76 508.476C1172.42 470.252 1195.27 405.894 1248.26 405.01Z" fill="#000000"/>
<path fill-rule="evenodd" clip-rule="evenodd" d="M1511.44 -125.481C1552.7 -122.258 1599.5 -144.696 1630.61 -117.418C1662.35 -89.5732 1656.8 -40.5765 1656.36 1.62413C1655.93 43.1872 1653.01 84.884 1628.16 118.218C1599.11 157.166 1560.04 196.988 1511.44 195.981C1463.23 194.983 1436.59 144.205 1399.46 113.482C1355.09 76.7662 1282.79 58.8428 1276.54 1.62413C1270.2 -56.5209 1320.57 -109.754 1372.06 -137.613C1414.69 -160.68 1463.1 -129.257 1511.44 -125.481Z" fill="#000000"/>
</g>
<defs>
<clipPath id="clip0_97_61">
<rect width="1600" height="650" fill="white"/>
</clipPath>
</defs>
</svg>
