<svg width="1600" height="748" viewBox="0 0 1600 748" fill="none" xmlns="http://www.w3.org/2000/svg">
<g clip-path="url(#clip0_136_1019)">
<rect width="1600" height="748" fill="#242424"/>
<path fill-rule="evenodd" clip-rule="evenodd" d="M1338.57 405.885C1371.19 364.779 1437.55 408.062 1490.04 408.721C1541.26 409.365 1597.56 377.994 1637.86 409.647C1679.72 442.525 1688.5 505.063 1679.46 557.49C1671.54 603.44 1630.09 631.729 1594.39 661.699C1563.15 687.918 1530.86 713.557 1490.16 716.381C1446.58 719.406 1396.32 712.349 1370.26 677.251C1345.48 643.877 1376.92 598.635 1372.11 557.361C1365.87 503.968 1305.18 447.976 1338.57 405.885Z" fill="url(#paint0_linear_136_1019)"/>
<path fill-rule="evenodd" clip-rule="evenodd" d="M595.507 497.823C617.146 490.917 641.068 501.387 658.555 515.961C673.679 528.567 676.409 549.192 680.318 568.51C683.872 586.074 686.784 603.795 679.646 620.207C671.611 638.683 658.973 656.996 639.56 662.232C620.128 667.473 599.734 658.336 583.717 646.081C569.614 635.291 564.249 618.015 559.411 600.907C554.471 583.442 550.165 565.75 556.157 548.638C563.525 527.596 574.316 504.585 595.507 497.823Z" fill="url(#paint1_linear_136_1019)"/>
<path fill-rule="evenodd" clip-rule="evenodd" d="M1040.97 276.183C1074.26 279.695 1077.99 327.004 1095.85 355.11C1107.41 373.297 1123.13 388.255 1125.77 409.6C1128.8 434.102 1127.02 460.295 1111.23 479.363C1094.16 499.976 1067.85 512.391 1040.97 511.991C1014.43 511.595 993.766 493.455 972.787 477.301C947.032 457.469 907.939 441.961 908 409.6C908.061 377.242 950.118 365.152 973.041 342.152C996.201 318.914 1008.23 272.729 1040.97 276.183Z" fill="url(#paint2_linear_136_1019)"/>
<path fill-rule="evenodd" clip-rule="evenodd" d="M62.6873 245.229C119.007 248.705 156.544 300.655 191.049 345.202C220.109 382.719 232.858 426.3 239.326 473.273C247.316 531.301 266.546 594.83 231.938 642.142C194.303 693.593 125.02 728.518 62.6873 714.752C4.44679 701.891 -13.0082 631.028 -45.2191 580.936C-67.2708 546.643 -86.6274 513.581 -92.5923 473.273C-99.9637 423.462 -110.964 369.959 -82.6042 328.311C-49.9941 280.419 4.7688 241.654 62.6873 245.229Z" fill="url(#paint3_linear_136_1019)"/>
<path fill-rule="evenodd" clip-rule="evenodd" d="M145.532 -335.533C229.404 -349.934 321.731 -350.994 388.208 -297.865C460.122 -240.392 497.523 -147.24 496.312 -55.189C495.115 35.8013 460.796 135.831 381.905 181.184C310.132 222.444 227.631 157.119 145.532 146.468C82.6 138.304 12.5544 167.091 -36.5514 126.895C-88.3283 84.5119 -102.816 11.6927 -100.824 -55.189C-98.8932 -120.012 -68.8287 -178.025 -26.0196 -226.741C20.4467 -279.618 76.155 -323.62 145.532 -335.533Z" fill="url(#paint4_linear_136_1019)"/>
<path fill-rule="evenodd" clip-rule="evenodd" d="M1501.15 -102.96C1539.33 -108.578 1577.4 -140.558 1611.15 -120.418C1649.27 -97.6689 1671.5 -48.3408 1671.72 -1.16814C1671.94 46.1722 1646.78 90.293 1612.26 119.286C1581.29 145.303 1540.3 144.007 1501.15 142.087C1464.45 140.288 1425.77 136.884 1399.66 108.86C1373.47 80.734 1364.19 38.62 1367.72 -1.16814C1370.94 -37.577 1389.86 -70.8629 1417.45 -91.9115C1441.35 -110.14 1472.2 -98.6988 1501.15 -102.96Z" fill="url(#paint5_linear_136_1019)"/>
</g>
<defs>
<linearGradient id="paint0_linear_136_1019" x1="1352.25" y1="391.745" x2="1611.75" y2="651.254" gradientUnits="userSpaceOnUse">
<stop stop-color="#3F3F3F"/>
<stop offset="1" stop-color="#0F0F0F" stop-opacity="0"/>
</linearGradient>
<linearGradient id="paint1_linear_136_1019" x1="597.049" y1="497.358" x2="641.115" y2="661.815" gradientUnits="userSpaceOnUse">
<stop stop-color="#3F3F3F"/>
<stop offset="1" stop-color="#0F0F0F" stop-opacity="0"/>
</linearGradient>
<linearGradient id="paint2_linear_136_1019" x1="1017.5" y1="276" x2="1017.5" y2="512" gradientUnits="userSpaceOnUse">
<stop stop-color="#3F3F3F"/>
<stop offset="1" stop-color="#0F0F0F" stop-opacity="0"/>
</linearGradient>
<linearGradient id="paint3_linear_136_1019" x1="75.4481" y1="245" x2="75.4481" y2="717.769" gradientUnits="userSpaceOnUse">
<stop stop-color="#3F3F3F"/>
<stop offset="1" stop-color="#0F0F0F" stop-opacity="0"/>
</linearGradient>
<linearGradient id="paint4_linear_136_1019" x1="197.67" y1="-344" x2="197.67" y2="194.707" gradientUnits="userSpaceOnUse">
<stop stop-color="#3F3F3F"/>
<stop offset="1" stop-color="#0F0F0F" stop-opacity="0"/>
</linearGradient>
<linearGradient id="paint5_linear_136_1019" x1="1519.36" y1="-127" x2="1519.36" y2="142.994" gradientUnits="userSpaceOnUse">
<stop stop-color="#3F3F3F"/>
<stop offset="1" stop-color="#0F0F0F" stop-opacity="0"/>
</linearGradient>
<clipPath id="clip0_136_1019">
<rect width="1600" height="748" fill="white"/>
</clipPath>
</defs>
</svg>
