<svg width="29" height="29" viewBox="0 0 29 29" fill="none" xmlns="http://www.w3.org/2000/svg">
<path fill-rule="evenodd" clip-rule="evenodd" d="M14.5 29C22.5081 29 29 22.5081 29 14.5C29 6.49187 22.5081 0 14.5 0C6.49187 0 0 6.49187 0 14.5C0 22.5081 6.49187 29 14.5 29ZM17.217 7.62758C18.5747 7.85716 19.873 8.2609 21.0842 8.80713C21.0948 8.81134 21.1035 8.81921 21.1087 8.8293C23.2549 11.9341 24.3141 15.4379 23.9183 19.4706C23.9174 19.4791 23.9146 19.4873 23.9102 19.4947C23.9059 19.5021 23.9 19.5084 23.893 19.5133C22.4534 20.5621 20.847 21.3599 19.1415 21.8732C19.1295 21.8768 19.1167 21.8766 19.1048 21.8726C19.0929 21.8687 19.0825 21.8611 19.075 21.851C18.7164 21.3594 18.3902 20.8417 18.1053 20.2978C18.1014 20.2903 18.0991 20.2821 18.0987 20.2737C18.0982 20.2652 18.0996 20.2568 18.1027 20.2489C18.1057 20.2411 18.1104 20.2339 18.1165 20.228C18.1225 20.2221 18.1298 20.2176 18.1377 20.2147C18.6547 20.0231 19.1471 19.7928 19.6205 19.5204C19.6289 19.5154 19.636 19.5084 19.641 19.5C19.6461 19.4916 19.649 19.482 19.6494 19.4722C19.6499 19.4624 19.6479 19.4527 19.6437 19.4438C19.6395 19.435 19.6331 19.4273 19.6252 19.4215C19.5247 19.3479 19.4257 19.2711 19.3307 19.1935C19.322 19.1866 19.3115 19.1822 19.3005 19.181C19.2894 19.1797 19.2782 19.1816 19.2682 19.1864C16.1958 20.5828 12.8289 20.5828 9.72016 19.1864C9.71014 19.1818 9.69907 19.1802 9.68817 19.1816C9.67726 19.183 9.66696 19.1874 9.65841 19.1943C9.56341 19.2711 9.46367 19.3479 9.36392 19.4215C9.35608 19.4274 9.34982 19.4352 9.34572 19.4441C9.34163 19.4531 9.33981 19.4629 9.34044 19.4727C9.34106 19.4825 9.34412 19.492 9.34932 19.5003C9.35452 19.5087 9.36172 19.5156 9.37025 19.5204C9.84531 19.7905 10.3408 20.0229 10.8522 20.2155C10.8855 20.2282 10.9013 20.2662 10.8847 20.2978C10.606 20.8425 10.2799 21.361 9.91411 21.8518C9.90638 21.8616 9.8959 21.8687 9.88404 21.8724C9.87218 21.8761 9.85948 21.8761 9.84762 21.8724C8.14506 21.3577 6.54123 20.5602 5.10329 19.5133C5.09646 19.5081 5.09077 19.5016 5.08655 19.4941C5.08233 19.4866 5.07968 19.4783 5.07875 19.4698C4.74705 15.9818 5.42233 12.4495 7.88592 8.82771C7.89199 8.81817 7.90083 8.81071 7.91125 8.80634C9.12326 8.25931 10.4216 7.85558 11.7784 7.626C11.7907 7.62406 11.8032 7.6259 11.8144 7.63127C11.8256 7.63665 11.8348 7.6453 11.841 7.65608C12.0217 7.97133 12.1848 8.29641 12.3294 8.6298C13.7693 8.41466 15.2332 8.41466 16.6732 8.6298C16.803 8.32898 16.9882 7.9482 17.1545 7.65608C17.1607 7.64543 17.17 7.63697 17.1812 7.63186C17.1924 7.62676 17.2049 7.62526 17.217 7.62758ZM9.64179 15.4617C9.64179 16.4995 10.4136 17.3458 11.3494 17.3458C12.3001 17.3458 13.0569 16.5003 13.0569 15.4617C13.072 14.4302 12.3073 13.5776 11.3494 13.5776C10.3986 13.5776 9.64179 14.4231 9.64179 15.4617ZM15.9551 15.4617C15.9551 16.4995 16.7262 17.3458 17.6627 17.3458C18.6214 17.3458 19.3703 16.5003 19.3703 15.4617C19.3853 14.4302 18.6206 13.5776 17.6627 13.5776C16.7112 13.5776 15.9551 14.4231 15.9551 15.4617Z" fill="#339A68"/>
</svg>
