<svg width="64" height="64" viewBox="0 0 64 64" fill="none" xmlns="http://www.w3.org/2000/svg">
<rect x="3.5" y="2.5" width="57" height="57" rx="28.5" fill="white"/>
<rect x="3.5" y="2.5" width="57" height="57" rx="28.5" stroke="white" stroke-width="3"/>
<path fill-rule="evenodd" clip-rule="evenodd" d="M31.5708 63.5703C48.9678 63.5703 63.0708 49.4673 63.0708 32.0703C63.0708 14.6733 48.9678 0.570312 31.5708 0.570312C14.1738 0.570312 0.0708008 14.6733 0.0708008 32.0703C0.0708008 49.4673 14.1738 63.5703 31.5708 63.5703ZM37.4733 17.1405C40.4227 17.6392 43.2432 18.5163 45.8744 19.7029C45.8974 19.7121 45.9163 19.7292 45.9277 19.7511C50.5901 26.4961 52.8911 34.1078 52.0312 42.8683C52.0292 42.8869 52.0232 42.9047 52.0137 42.9207C52.0043 42.9367 51.9915 42.9506 51.9762 42.9612C48.849 45.2395 45.3591 46.9728 41.6541 48.0879C41.628 48.0957 41.6001 48.0953 41.5742 48.0866C41.5484 48.078 41.5258 48.0616 41.5096 48.0397C40.7306 46.9717 40.022 45.847 39.4029 44.6655C39.3945 44.6492 39.3896 44.6313 39.3886 44.613C39.3877 44.5947 39.3906 44.5764 39.3973 44.5593C39.404 44.5422 39.4142 44.5267 39.4273 44.5139C39.4405 44.5011 39.4562 44.4912 39.4734 44.4849C40.5964 44.0688 41.6661 43.5683 42.6946 42.9767C42.7129 42.9658 42.7282 42.9505 42.7392 42.9323C42.7502 42.914 42.7565 42.8933 42.7575 42.872C42.7585 42.8507 42.7543 42.8295 42.7451 42.8102C42.7359 42.791 42.7221 42.7743 42.7049 42.7617C42.4865 42.6018 42.2715 42.435 42.0651 42.2664C42.0462 42.2514 42.0234 42.2419 41.9994 42.2392C41.9754 42.2365 41.9511 42.2405 41.9293 42.2509C35.2548 45.2846 27.9406 45.2846 21.187 42.2509C21.1653 42.2411 21.1412 42.2375 21.1175 42.2406C21.0938 42.2436 21.0715 42.2531 21.0529 42.2681C20.8465 42.435 20.6298 42.6018 20.4131 42.7617C20.3961 42.7746 20.3825 42.7915 20.3736 42.8109C20.3647 42.8303 20.3607 42.8516 20.3621 42.8729C20.3635 42.8942 20.3701 42.9149 20.3814 42.933C20.3927 42.9511 20.4083 42.9661 20.4269 42.9767C21.4589 43.5634 22.5353 44.0683 23.6463 44.4867C23.7185 44.5142 23.7529 44.5967 23.7168 44.6655C23.1115 45.8487 22.4029 46.9752 21.6084 48.0414C21.5916 48.0626 21.5688 48.0781 21.543 48.0861C21.5173 48.0941 21.4897 48.0941 21.4639 48.0862C17.7652 46.968 14.2811 45.2355 11.1573 42.9612C11.1424 42.9499 11.1301 42.9357 11.1209 42.9194C11.1117 42.9031 11.106 42.8852 11.104 42.8666C10.3834 35.2893 11.8503 27.6156 17.2023 19.7477C17.2155 19.7269 17.2347 19.7107 17.2573 19.7012C19.8903 18.5129 22.7107 17.6358 25.6584 17.137C25.685 17.1328 25.7123 17.1368 25.7366 17.1485C25.7609 17.1602 25.781 17.179 25.7943 17.2024C26.187 17.8872 26.5413 18.5934 26.8554 19.3177C29.9835 18.8503 33.1637 18.8503 36.2918 19.3177C36.5739 18.6642 36.9763 17.837 37.3374 17.2024C37.3509 17.1793 37.3712 17.1609 37.3955 17.1498C37.4199 17.1387 37.447 17.1354 37.4733 17.1405ZM21.0168 34.1594C21.0168 36.414 22.6935 38.2525 24.7263 38.2525C26.7918 38.2525 28.4359 36.4157 28.4359 34.1594C28.4686 31.9185 26.8073 30.0663 24.7263 30.0663C22.6609 30.0663 21.0168 31.903 21.0168 34.1594ZM34.732 34.1594C34.732 36.414 36.4071 38.2525 38.4415 38.2525C40.5242 38.2525 42.1511 36.4157 42.1511 34.1594C42.1838 31.9185 40.5225 30.0663 38.4415 30.0663C36.3744 30.0663 34.732 31.903 34.732 34.1594Z" fill="#1A1A1A"/>
<circle cx="31.5708" cy="31.5" r="30.5" stroke="white" stroke-width="2"/>
</svg>
