<svg width="63" height="63" viewBox="0 0 63 63" fill="none" xmlns="http://www.w3.org/2000/svg">
<rect x="3.5" y="3.5" width="57" height="57" rx="28.5" fill="white"/>
<rect x="3.5" y="3.5" width="57" height="57" rx="28.5" stroke="white" stroke-width="3"/>
<path d="M31.5 0C14.1068 0 0 14.1068 0 31.5C0 48.8932 14.1068 63 31.5 63C48.8932 63 63 48.8932 63 31.5C63 14.1068 48.9011 0 31.5 0ZM15.54 32.5579L15.6739 32.3452L23.8717 19.5247C23.8992 19.4826 23.9375 19.4486 23.9826 19.4263C24.0276 19.404 24.0779 19.3942 24.1281 19.398C24.1782 19.4017 24.2264 19.4189 24.2677 19.4477C24.309 19.4764 24.3417 19.5157 24.3626 19.5615C25.7276 22.6301 26.9141 26.4469 26.3576 28.8225C26.1266 29.799 25.4783 31.122 24.7459 32.3452C24.6519 32.5242 24.5494 32.6985 24.4388 32.8676C24.4122 32.9053 24.3768 32.9359 24.3355 32.9565C24.2943 32.9771 24.2486 32.9872 24.2025 32.9857H15.7841C15.7339 32.9865 15.6844 32.9737 15.6408 32.9486C15.5973 32.9235 15.5614 32.887 15.5369 32.8432C15.5124 32.7993 15.5002 32.7496 15.5017 32.6994C15.5032 32.6491 15.5182 32.6002 15.5452 32.5579H15.54ZM52.0642 36.9679C52.0649 37.0239 52.0491 37.0789 52.0187 37.1261C51.9884 37.1732 51.9449 37.2104 51.8936 37.233C51.2557 37.5034 49.0849 38.5061 48.1819 39.7583C45.8771 42.966 44.1184 47.5545 40.1809 47.5545H23.7641C22.378 47.5524 21.0059 47.2772 19.7262 46.7447C18.4465 46.2121 17.2843 45.4325 16.3061 44.4506C15.3278 43.4687 14.5526 42.3036 14.0248 41.0219C13.497 39.7402 13.2269 38.3671 13.23 36.981V36.792C13.23 36.6397 13.356 36.5137 13.5135 36.5137H22.6616C22.8454 36.5137 22.9766 36.6791 22.9635 36.8602C22.8953 37.4535 23.0081 38.0651 23.2916 38.619C23.8324 39.7215 24.9611 40.4092 26.1765 40.4092H30.7073V36.8734H26.2237C26.1712 36.8728 26.1198 36.8579 26.0751 36.8303C26.0304 36.8027 25.9941 36.7635 25.9701 36.7167C25.946 36.67 25.9352 36.6176 25.9387 36.5652C25.9423 36.5128 25.96 36.4623 25.9901 36.4193L26.1555 36.183C26.5755 35.5766 27.1819 34.6447 27.7856 33.579C28.1951 32.8597 28.5941 32.0933 28.9144 31.3215C28.9774 31.185 29.0273 31.0406 29.085 30.9015C29.1716 30.6548 29.2609 30.4237 29.3239 30.1954C29.3857 30.0017 29.4426 29.8065 29.4945 29.61C29.6441 28.9537 29.7071 28.2607 29.7071 27.5441C29.7071 27.2606 29.6966 26.964 29.6704 26.6858C29.6573 26.3786 29.6179 26.0689 29.5811 25.7618C29.5518 25.487 29.5097 25.2137 29.4551 24.9427C29.3845 24.5302 29.2987 24.1205 29.1979 23.7143L29.1611 23.5567C29.0824 23.2733 29.0141 23.0055 28.9249 22.7246C28.6749 21.8621 28.3877 21.0108 28.0639 20.1731C27.9511 19.858 27.8267 19.5472 27.6911 19.2412C27.5021 18.774 27.3079 18.3514 27.132 17.955C27.0445 17.7852 26.9622 17.6127 26.8852 17.4379C26.7999 17.2492 26.7097 17.0628 26.6149 16.8787C26.5519 16.7396 26.4758 16.6057 26.4259 16.4797L25.872 15.4612C25.7959 15.3221 25.9219 15.1515 26.0741 15.1961L29.5391 16.1332H29.5654L30.0195 16.2645L30.5235 16.4062L30.7073 16.4561V14.4008C30.7073 13.4059 31.5 12.6 32.4896 12.6C32.7233 12.5994 32.9547 12.646 33.1699 12.7371C33.3851 12.8283 33.5796 12.962 33.7417 13.1302C34.0769 13.4683 34.2655 13.9247 34.2668 14.4008V17.4563L34.6369 17.5586C34.6631 17.5718 34.6946 17.5849 34.7183 17.6033C34.8075 17.6663 34.9388 17.766 35.1041 17.892C35.2354 17.9918 35.3745 18.1178 35.5373 18.2516C36.0556 18.6739 36.5582 19.1152 37.044 19.5746C37.6058 20.097 38.2357 20.7086 38.8395 21.3885C39.0101 21.5828 39.1729 21.7717 39.3435 21.9817C39.5062 22.1891 39.69 22.3913 39.8423 22.5907C40.0496 22.8638 40.2622 23.1473 40.4591 23.4412C40.5457 23.5804 40.6534 23.7247 40.7347 23.8639C40.9867 24.2366 41.202 24.6199 41.4094 25.0058C41.4986 25.1816 41.5853 25.3759 41.6614 25.5649C41.895 26.082 42.0788 26.6044 42.1916 27.1346C42.229 27.2472 42.2545 27.3633 42.2677 27.4811V27.5074C42.3045 27.657 42.3176 27.8224 42.3307 27.9904C42.4047 28.7662 42.3097 29.5489 42.0525 30.2846C41.9711 30.5051 41.895 30.7309 41.7952 30.9514C41.5984 31.3976 41.3726 31.8518 41.1022 32.2691C41.013 32.4266 40.9054 32.5894 40.8056 32.7469C40.6927 32.9123 40.572 33.0697 40.4723 33.2194C40.3279 33.4181 40.1764 33.6117 40.0181 33.7995C39.879 33.9885 39.7399 34.1775 39.5824 34.3481C39.3698 34.6054 39.1624 34.8469 38.9392 35.0779C38.8132 35.2301 38.6768 35.3876 38.5298 35.5241C38.3932 35.6816 38.2463 35.8208 38.1203 35.9468C37.8997 36.1673 37.7265 36.3326 37.5742 36.477L37.2146 36.7972C37.1645 36.8475 37.0966 36.8758 37.0256 36.876H34.2668V40.4092H37.737C38.5114 40.4092 39.249 40.1362 39.8475 39.627C40.0496 39.4511 40.9369 38.682 41.9895 37.5217C42.0238 37.4823 42.0698 37.4547 42.1208 37.443L51.702 34.6684C51.7441 34.6562 51.7884 34.654 51.8315 34.6618C51.8746 34.6696 51.9152 34.6873 51.9503 34.7135C51.9854 34.7397 52.014 34.7737 52.0337 34.8128C52.0535 34.8518 52.0639 34.895 52.0642 34.9388V36.9679Z" fill="#1A1A1A"/>
<circle cx="31.5" cy="31.5" r="30.5" stroke="white" stroke-width="2"/>
</svg>
