<svg width="29" height="29" viewBox="0 0 29 29" fill="none" xmlns="http://www.w3.org/2000/svg">
<path d="M14.5 0C6.49358 0 0 6.49358 0 14.5C0 22.5064 6.49358 29 14.5 29C22.5064 29 29 22.5064 29 14.5C29 6.49358 22.51 0 14.5 0ZM7.15333 14.987L7.21496 14.8891L10.9886 8.98758C11.0012 8.96818 11.0188 8.95253 11.0396 8.94227C11.0603 8.93201 11.0835 8.9275 11.1066 8.92923C11.1297 8.93096 11.1519 8.93886 11.1708 8.9521C11.1898 8.96534 11.2049 8.98344 11.2145 9.0045C11.8429 10.417 12.389 12.174 12.1329 13.2675C12.0265 13.717 11.7281 14.326 11.391 14.8891C11.3477 14.9715 11.3005 15.0517 11.2496 15.1295C11.2374 15.1469 11.2211 15.161 11.2021 15.1705C11.1831 15.1799 11.162 15.1846 11.1408 15.1839H7.26571C7.24258 15.1843 7.21978 15.1784 7.19974 15.1668C7.17971 15.1552 7.16317 15.1385 7.15189 15.1183C7.14062 15.0981 7.13502 15.0752 7.1357 15.0521C7.13638 15.029 7.14331 15.0065 7.15575 14.987H7.15333ZM23.9661 17.017C23.9664 17.0428 23.9591 17.0681 23.9451 17.0898C23.9312 17.1115 23.9111 17.1286 23.8875 17.139C23.5939 17.2635 22.5946 17.725 22.179 18.3014C21.118 19.778 20.3085 21.8902 18.496 21.8902H10.939C10.301 21.8892 9.6694 21.7625 9.08033 21.5174C8.49127 21.2722 7.95629 20.9134 7.50596 20.4614C7.05564 20.0094 6.6988 19.4731 6.45585 18.8831C6.21289 18.2931 6.08857 17.661 6.09 17.023V16.936C6.09 16.8659 6.148 16.8079 6.2205 16.8079H10.4315C10.5161 16.8079 10.5765 16.884 10.5705 16.9674C10.5391 17.2405 10.591 17.522 10.7215 17.777C10.9705 18.2845 11.49 18.6011 12.0495 18.6011H14.1351V16.9735H12.0713C12.0471 16.9732 12.0234 16.9664 12.0028 16.9536C11.9823 16.9409 11.9655 16.9229 11.9545 16.9014C11.9434 16.8798 11.9384 16.8557 11.94 16.8316C11.9417 16.8075 11.9499 16.7842 11.9637 16.7644L12.0398 16.6557C12.2332 16.3765 12.5123 15.9476 12.7902 15.457C12.9787 15.1259 13.1624 14.7731 13.3098 14.4178C13.3388 14.355 13.3618 14.2885 13.3883 14.2245C13.4282 14.1109 13.4693 14.0046 13.4983 13.8995C13.5268 13.8103 13.5529 13.7205 13.5768 13.63C13.6457 13.3279 13.6747 13.0089 13.6747 12.679C13.6747 12.5485 13.6699 12.412 13.6578 12.2839C13.6518 12.1425 13.6336 12 13.6167 11.8586C13.6032 11.7321 13.5838 11.6063 13.5587 11.4816C13.5262 11.2917 13.4867 11.1031 13.4403 10.9161L13.4234 10.8436C13.3871 10.7131 13.3557 10.5898 13.3146 10.4605C13.1996 10.0635 13.0673 9.67162 12.9183 9.28604C12.8664 9.14101 12.8091 8.99792 12.7467 8.85708C12.6597 8.642 12.5703 8.44746 12.4893 8.265C12.4491 8.18683 12.4112 8.10745 12.3757 8.02696C12.3364 7.94013 12.295 7.85431 12.2513 7.76958C12.2223 7.70554 12.1873 7.64392 12.1643 7.58592L11.9093 7.11708C11.8743 7.05304 11.9323 6.9745 12.0024 6.99504L13.5974 7.42642H13.6095L13.8185 7.48683L14.0505 7.55208L14.1351 7.57504V6.62892C14.1351 6.17096 14.5 5.8 14.9555 5.8C15.0631 5.79971 15.1696 5.82119 15.2687 5.86313C15.3677 5.90508 15.4573 5.96663 15.5319 6.04408C15.6862 6.1997 15.773 6.40979 15.7736 6.62892V8.03542L15.944 8.08254C15.956 8.08858 15.9705 8.09463 15.9814 8.10308C16.0225 8.13208 16.0829 8.178 16.159 8.236C16.2195 8.28192 16.2835 8.33992 16.3584 8.40154C16.597 8.59594 16.8284 8.79908 17.052 9.01054C17.3106 9.251 17.6006 9.53254 17.8785 9.8455C17.957 9.93492 18.032 10.0219 18.1105 10.1186C18.1854 10.214 18.27 10.3071 18.3401 10.3989C18.4355 10.5246 18.5334 10.6551 18.624 10.7904C18.6639 10.8545 18.7135 10.9209 18.7509 10.985C18.8669 11.1565 18.966 11.333 19.0615 11.5106C19.1025 11.5915 19.1424 11.681 19.1775 11.768C19.285 12.006 19.3696 12.2465 19.4215 12.4905C19.4387 12.5423 19.4505 12.5958 19.4566 12.65V12.6621C19.4735 12.731 19.4795 12.8071 19.4856 12.8845C19.5196 13.2416 19.4759 13.6019 19.3575 13.9405C19.32 14.042 19.285 14.146 19.2391 14.2475C19.1485 14.4529 19.0445 14.6619 18.9201 14.854C18.879 14.9265 18.8295 15.0015 18.7835 15.074C18.7316 15.1501 18.676 15.2226 18.6301 15.2915C18.5636 15.383 18.4939 15.472 18.421 15.5585C18.357 15.6455 18.293 15.7325 18.2205 15.811C18.1226 15.9295 18.0271 16.0406 17.9244 16.147C17.8664 16.217 17.8036 16.2895 17.7359 16.3524C17.6731 16.4249 17.6054 16.4889 17.5474 16.5469C17.4459 16.6484 17.3662 16.7245 17.2961 16.791L17.1305 16.9384C17.1075 16.9615 17.0762 16.9746 17.0435 16.9747H15.7736V18.6011H17.371C17.7275 18.6011 18.067 18.4754 18.3425 18.241C18.4355 18.16 18.844 17.806 19.3285 17.2719C19.3443 17.2537 19.3654 17.241 19.3889 17.2357L23.7993 15.9585C23.8187 15.9529 23.8391 15.9518 23.8589 15.9554C23.8788 15.959 23.8975 15.9672 23.9136 15.9792C23.9298 15.9913 23.9429 16.0069 23.952 16.0249C23.9611 16.0429 23.9659 16.0628 23.9661 16.0829V17.017Z" fill="#339A68"/>
</svg>
