<svg width="63" height="63" viewBox="0 0 63 63" fill="none" xmlns="http://www.w3.org/2000/svg">
<rect x="3.5" y="3.5" width="57" height="57" rx="28.5" fill="white"/>
<rect x="3.5" y="3.5" width="57" height="57" rx="28.5" stroke="white" stroke-width="3"/>
<path d="M31.5 63C27.2344 63 23.1533 62.1694 19.2568 60.5083C15.3604 58.8472 12.0073 56.6118 9.19775 53.8022C6.38818 50.9927 4.15283 47.6396 2.4917 43.7432C0.830566 39.8467 0 35.7656 0 31.5C0 27.2344 0.830566 23.1533 2.4917 19.2568C4.15283 15.3604 6.38818 12.0073 9.19775 9.19775C12.0073 6.38818 15.3604 4.15283 19.2568 2.4917C23.1533 0.830566 27.2344 0 31.5 0C35.7656 0 39.8467 0.830566 43.7432 2.4917C47.6396 4.15283 50.9927 6.38818 53.8022 9.19775C56.6118 12.0073 58.8472 15.3604 60.5083 19.2568C62.1694 23.1533 63 27.2344 63 31.5C63 35.7656 62.1694 39.8467 60.5083 43.7432C58.8472 47.6396 56.6118 50.9927 53.8022 53.8022C50.9927 56.6118 47.6396 58.8472 43.7432 60.5083C39.8467 62.1694 35.7656 63 31.5 63ZM50.0186 15.75C49.7725 15.873 49.4033 16.0986 48.9111 16.4268L47.7114 17.2266L46.5732 17.8418L45.2812 18.2725C43.7637 16.5908 41.8975 15.75 39.6826 15.75C34.8838 15.75 32.4844 17.7598 32.4844 21.7793V25.4092C25.8809 25.0811 20.8154 22.6611 17.2881 18.1494C16.2627 19.2158 15.75 20.3848 15.75 21.6562C15.75 24.3633 16.7549 26.4141 18.7646 27.8086C18.5186 27.8086 18.1699 27.8291 17.7188 27.8701C17.2676 27.9111 16.9087 27.9111 16.6421 27.8701C16.3755 27.8291 16.0781 27.7266 15.75 27.5625C15.75 29.4492 16.2524 31.0181 17.2573 32.269C18.2622 33.52 19.6465 34.3301 21.4102 34.6992C21 35.1914 20.4258 35.4375 19.6875 35.4375C19.0312 35.4375 18.457 35.2529 17.9648 34.8838C17.9648 36.4834 18.7339 37.7241 20.272 38.606C21.8101 39.4878 23.543 39.9492 25.4707 39.9902C24.7324 41.0977 23.6558 41.9282 22.2407 42.4819C20.8257 43.0356 19.3184 43.3125 17.7188 43.3125C17.1445 43.3125 16.355 43.1689 15.3501 42.8818C14.3452 42.5947 13.8223 42.4512 13.7812 42.4512C14.4375 43.7637 15.7808 44.8916 17.811 45.835C19.8413 46.7783 22.415 47.25 25.5322 47.25C28.2803 47.25 30.8438 46.7681 33.2227 45.8042C35.6016 44.8403 37.6318 43.5586 39.3135 41.959C40.9951 40.3594 42.4409 38.5342 43.6509 36.4834C44.8608 34.4326 45.7632 32.3101 46.3579 30.1157C46.9526 27.9214 47.25 25.7578 47.25 23.625C47.25 23.543 47.4961 23.3687 47.9883 23.1021C48.4805 22.8354 49.0547 22.4766 49.7109 22.0254C50.3672 21.5742 50.8594 21.1025 51.1875 20.6104C48.9727 20.6104 47.4961 20.6514 46.7578 20.7334C48.1934 19.8721 49.2803 18.2109 50.0186 15.75Z" fill="#1A1A1A"/>
<circle cx="31.5" cy="31.5" r="30.5" stroke="white" stroke-width="2"/>
</svg>
